<svg xmlns="http://www.w3.org/2000/svg" width="376" height="324" viewBox="0 0 376 324" fill="none"><path d="M-35.4455 28.4666C-42.9124 26.4591 -47.338 18.7786 -45.3304 11.3118C-43.3229 3.84492 -35.6424 -0.580696 -28.1756 1.42685L-35.4455 28.4666ZM169.952 236.012L156.287 232.97L169.952 236.012ZM-28.1756 1.42685C9.71333 11.6137 68.5058 38.8961 114.868 78.7499C160.966 118.377 198.181 173.64 183.618 239.054L156.287 232.97C167.475 182.715 139.827 137.129 96.615 99.983C53.6667 63.0634 -1.29779 37.6476 -35.4455 28.4666L-28.1756 1.42685ZM183.618 239.054C175.334 276.262 162.068 300.669 143.814 312.177C124.091 324.611 103.198 319.445 87.3167 308.552C71.6618 297.814 58.7116 280.43 50.9056 262.496C43.2468 244.9 39.288 223.791 45.8688 206.051L72.1207 215.79C69.1453 223.811 70.2545 236.791 76.579 251.322C82.7564 265.514 92.7047 278.293 103.155 285.461C113.378 292.474 121.797 292.958 128.882 288.491C137.436 283.098 148.476 268.055 156.287 232.97L183.618 239.054ZM45.8688 206.051C50.1372 194.545 60.621 186.765 71.4096 181.594C82.6507 176.207 96.7591 172.413 112.287 170.214C143.402 165.807 182.469 167.489 220.831 177.856C259.21 188.228 297.762 207.541 326.83 239.155C356.132 271.023 375.032 314.584 375.035 371.679L347.035 371.68C347.033 321.296 330.565 284.584 306.219 258.107C281.641 231.377 248.266 214.275 213.526 204.886C178.768 195.493 143.522 194.069 116.214 197.937C102.53 199.875 91.3999 203.063 83.5106 206.844C75.1688 210.842 72.6305 214.415 72.1207 215.79L45.8688 206.051Z" fill="white"></path></svg>