<svg xmlns="http://www.w3.org/2000/svg" width="409" height="212" viewBox="0 0 409 212" fill="none"><path d="M491.957 183.473C499.689 183.475 505.955 189.745 505.953 197.477C505.95 205.209 499.68 211.475 491.948 211.473L491.957 183.473ZM235.717 61.7917L249.669 60.6261L235.717 61.7917ZM491.948 211.473C453.085 211.46 389.328 202.172 333.824 179.993C279.422 158.253 226.652 121.439 221.766 62.9574L249.669 60.6261C253.108 101.796 291.206 132.809 344.214 153.992C396.122 174.734 456.319 183.461 491.957 183.473L491.948 211.473ZM221.766 62.9574C219.037 30.2985 224.863 6.15594 239.967 -8.03474C255.503 -22.6301 276.359 -22.6682 293.822 -17.5289C311.467 -12.3357 328.75 -1.17171 341.47 11.8381C353.669 24.3152 364.458 41.4413 363.076 59.0689L335.162 56.8811C335.585 51.4814 331.801 42.0006 321.449 31.4126C311.618 21.3573 298.374 12.9983 285.916 9.33195C273.276 5.61178 264.455 7.37786 259.139 12.372C253.393 17.7708 247.194 31.0031 249.669 60.6261L221.766 62.9574ZM363.076 59.0689C362.128 71.1721 353.149 80.4519 344.531 86.833C335.23 93.7205 322.799 99.8706 308.647 105.015C280.243 115.339 242.588 122.444 203.206 122.388C124.955 122.277 34.3821 93.4176 0.850019 -2.1623L27.2712 -11.4316C55.0438 67.7314 130.195 94.2848 203.245 94.388C239.513 94.4393 273.903 87.851 299.082 78.6991C311.722 74.1048 321.467 69.0708 327.869 64.3303C334.955 59.0835 335.208 56.2915 335.162 56.8811L363.076 59.0689Z" fill="white"></path></svg>